<svg width="24" height="24" viewBox="0 0 24 24" fill="none" xmlns="http://www.w3.org/2000/svg">
<path d="M8.24995 22.6125V17.4375L4.38745 20.2875C5.47495 21.3 6.78745 22.0875 8.24995 22.6125Z" fill="#2A5F9E"/>
<path d="M15.75 22.6126C17.2125 22.0876 18.525 21.3001 19.6125 20.2876L15.75 17.4001V22.6126Z" fill="#2A5F9E"/>
<path d="M1.38745 15.75C1.49995 16.125 1.64995 16.4625 1.83745 16.8375L3.29995 15.75H1.38745Z" fill="#2A5F9E"/>
<path d="M20.7 15.75L22.1624 16.8375C22.3124 16.5 22.4624 16.125 22.6124 15.75H20.7Z" fill="#2A5F9E"/>
<path d="M8.81235 14.25H0.974854C1.08735 14.775 1.23735 15.2625 1.38735 15.75H3.29985L1.83735 16.8375C2.13735 17.475 2.47485 18.0375 2.88735 18.6L6.74985 15.75H8.24985V16.5L3.86235 19.725L4.38735 20.25L8.24985 17.4375V22.6125C8.73735 22.8 9.22485 22.9125 9.74985 23.025V14.25H8.81235Z" fill="white"/>
<path d="M23.025 14.25H14.25V23.025C14.775 22.9125 15.2625 22.7625 15.75 22.6125V17.4375L19.6125 20.25C20.1375 19.7625 20.5875 19.2375 21.0375 18.675L17.025 15.75H19.575L21.8625 17.4375C21.975 17.25 22.0875 17.025 22.1625 16.8375L20.7 15.75H22.6125C22.7625 15.2625 22.9125 14.775 23.025 14.25Z" fill="white"/>
<path d="M2.88745 18.5999C3.18745 19.0124 3.48745 19.3874 3.82495 19.7624L8.24995 16.5374V15.7874H6.74995L2.88745 18.5999Z" fill="#ED4C5C"/>
<path d="M17.0625 15.75L21.075 18.675C21.225 18.4875 21.3375 18.3 21.4875 18.1125C21.525 18.075 21.525 18.0375 21.5625 18.0375C21.675 17.85 21.825 17.625 21.9375 17.4375L19.575 15.75H17.0625Z" fill="#ED4C5C"/>
<path d="M15.75 1.38745V6.56245L19.6125 3.71245C18.525 2.69995 17.2125 1.91245 15.75 1.38745Z" fill="#2A5F9E"/>
<path d="M8.24995 1.38745C6.78745 1.91245 5.47495 2.69995 4.38745 3.71245L8.24995 6.59995V1.38745Z" fill="#2A5F9E"/>
<path d="M22.6124 8.2501C22.4999 7.8751 22.3499 7.5376 22.1624 7.1626L20.7 8.2501H22.6124Z" fill="#2A5F9E"/>
<path d="M3.29995 8.2501L1.83745 7.1626C1.68745 7.5376 1.53745 7.8751 1.38745 8.2501H3.29995Z" fill="#2A5F9E"/>
<path d="M15.1875 9.74985H22.9875C22.875 9.22485 22.725 8.73735 22.575 8.24985H20.6625L22.125 7.16235C21.825 6.52485 21.4875 5.96235 21.075 5.39985L17.25 8.24985H15.75V7.49985L20.1375 4.27485L19.6125 3.74985L15.75 6.56235V1.38735C15.2625 1.19985 14.775 1.08735 14.25 0.974854V9.74985H15.1875Z" fill="white"/>
<path d="M0.974854 9.74985H9.74985V0.974854C9.22485 1.08735 8.73735 1.23735 8.24985 1.38735V6.56235L4.38735 3.74985C3.86235 4.23735 3.41235 4.76235 2.96235 5.32485L6.97485 8.24985H4.42485L2.13735 6.56235C2.02485 6.74985 1.91235 6.97485 1.83735 7.16235L3.29985 8.24985H1.38735C1.23735 8.73735 1.08735 9.22485 0.974854 9.74985Z" fill="white"/>
<path d="M21.1125 5.40005C20.8125 4.98755 20.5125 4.61255 20.175 4.23755L15.75 7.46255V8.21255H17.25L21.1125 5.40005" fill="#ED4C5C"/>
<path d="M6.93735 8.24995L2.96235 5.32495C2.81235 5.51245 2.69985 5.69995 2.54985 5.88745C2.51235 5.92495 2.51235 5.96245 2.47485 5.96245C2.36235 6.14995 2.21235 6.37495 2.09985 6.56245L4.38735 8.24995H6.93735Z" fill="#ED4C5C"/>
<path d="M23.025 9.75H14.25V0.975C13.5375 0.825 12.7875 0.75 12 0.75C11.2125 0.75 10.4625 0.825 9.75 0.975V9.75H0.975C0.825 10.4625 0.75 11.2125 0.75 12C0.75 12.7875 0.825 13.5375 0.975 14.25H9.75V23.025C10.4625 23.175 11.2125 23.25 12 23.25C12.7875 23.25 13.5375 23.175 14.25 23.025V14.25H23.025C23.175 13.5375 23.25 12.7875 23.25 12C23.25 11.2125 23.175 10.4625 23.025 9.75Z" fill="#ED4C5C"/>
</svg>
