<svg width="28" height="28" viewBox="0 0 28 28" fill="#333" xmlns="http://www.w3.org/2000/svg">
<g clip-path="url(#clip0_96_134)">
<path d="M9.95886 15.1694H12.2364C12.6737 15.1694 13.0294 14.8137 13.0294 14.3764V12.0989C13.0294 11.6617 12.6737 11.3059 12.2364 11.3059H9.95886C9.52164 11.3059 9.16589 11.6617 9.16589 12.0989V14.3764C9.16589 14.8137 9.52164 15.1694 9.95886 15.1694ZM9.98621 12.1262H12.2091V14.3491H9.98621V12.1262Z" fill="inherit"/>
<path d="M15.7634 15.1694H18.041C18.4782 15.1694 18.834 14.8137 18.834 14.3764V12.0989C18.834 11.6617 18.4782 11.3059 18.041 11.3059H15.7634C15.3262 11.3059 14.9705 11.6617 14.9705 12.0989V14.3764C14.9705 14.8137 15.3262 15.1694 15.7634 15.1694ZM15.7908 12.1262H18.0137V14.3491H15.7908V12.1262Z" fill="inherit"/>
<path d="M21.5679 15.1694H23.8454C24.2827 15.1694 24.6384 14.8137 24.6384 14.3764V12.0989C24.6384 11.6617 24.2827 11.3059 23.8454 11.3059H21.5679C21.1306 11.3059 20.7749 11.6617 20.7749 12.0989V14.3764C20.7749 14.8137 21.1306 15.1694 21.5679 15.1694ZM21.5952 12.1262H23.8181V14.3491H21.5952V12.1262Z" fill="inherit"/>
<path d="M3.36157 24.5328C3.36157 24.97 3.71731 25.3257 4.15454 25.3257H6.43211C6.86934 25.3257 7.22508 24.97 7.22508 24.5328V22.2551C7.22508 21.8179 6.86934 21.4622 6.43211 21.4622H4.15454C3.71731 21.4622 3.36157 21.8179 3.36157 22.2551V24.5328ZM4.18189 22.2825H6.40477V24.5054H4.18189V22.2825Z" fill="inherit"/>
<path d="M9.16589 24.5328C9.16589 24.97 9.52164 25.3257 9.95886 25.3257H12.2364C12.6737 25.3257 13.0294 24.97 13.0294 24.5328V22.2551C13.0294 21.8179 12.6737 21.4622 12.2364 21.4622H9.95886C9.52164 21.4622 9.16589 21.8179 9.16589 22.2551V24.5328ZM9.98621 22.2825H12.2091V24.5054H9.98621V22.2825Z" fill="inherit"/>
<path d="M14.9705 24.5328C14.9705 24.97 15.3262 25.3257 15.7634 25.3257H18.041C18.4782 25.3257 18.834 24.97 18.834 24.5328V22.2551C18.834 21.8179 18.4782 21.4622 18.041 21.4622H15.7634C15.3262 21.4622 14.9705 21.8179 14.9705 22.2551V24.5328ZM15.7908 22.2825H18.0137V24.5054H15.7908V22.2825Z" fill="inherit"/>
<path d="M20.7749 24.5328C20.7749 24.97 21.1306 25.3257 21.5679 25.3257H23.8454C24.2827 25.3257 24.6384 24.97 24.6384 24.5328V22.2551C24.6384 21.8179 24.2827 21.4622 23.8454 21.4622H21.5679C21.1306 21.4622 20.7749 21.8179 20.7749 22.2551V24.5328ZM21.5952 22.2825H23.8181V24.5054H21.5952V22.2825Z" fill="inherit"/>
<path d="M4.15454 20.2474H6.43211C6.86934 20.2474 7.22508 19.8916 7.22508 19.4544V17.1768C7.22508 16.7395 6.86934 16.3838 6.43211 16.3838H4.15454C3.71731 16.3838 3.36157 16.7395 3.36157 17.1768V19.4544C3.36157 19.8916 3.71731 20.2474 4.15454 20.2474ZM4.18189 17.2041H6.40477V19.427H4.18189V17.2041Z" fill="inherit"/>
<path d="M9.16589 19.4544C9.16589 19.8916 9.52164 20.2474 9.95886 20.2474H12.2364C12.6737 20.2474 13.0294 19.8916 13.0294 19.4544V17.1768C13.0294 16.7395 12.6737 16.3838 12.2364 16.3838H9.95886C9.52164 16.3838 9.16589 16.7395 9.16589 17.1768V19.4544ZM9.98621 17.2041H12.2091V19.427H9.98621V17.2041Z" fill="inherit"/>
<path d="M14.9705 19.4544C14.9705 19.8916 15.3262 20.2474 15.7634 20.2474H18.041C18.4782 20.2474 18.834 19.8916 18.834 19.4544V17.1768C18.834 16.7395 18.4782 16.3838 18.041 16.3838H15.7634C15.3262 16.3838 14.9705 16.7395 14.9705 17.1768V19.4544ZM15.7908 17.2041H18.0137V19.427H15.7908V17.2041Z" fill="inherit"/>
<path d="M20.7749 19.4544C20.7749 19.8916 21.1306 20.2474 21.5679 20.2474H23.8454C24.2827 20.2474 24.6384 19.8916 24.6384 19.4544V17.1768C24.6384 16.7395 24.2827 16.3838 23.8454 16.3838H21.5679C21.1306 16.3838 20.7749 16.7395 20.7749 17.1768V19.4544ZM21.5952 17.2041H23.8181V19.427H21.5952V17.2041Z" fill="inherit"/>
<path d="M28 6.01094V5.09498C28 3.96415 27.08 3.0442 25.9492 3.0442H24.6987V0.873871C24.6987 0.50752 24.4006 0.209473 24.0343 0.209473H22.1912C21.8249 0.209473 21.5268 0.50752 21.5268 0.873871V3.0442H18.6236V0.873871C18.6236 0.50752 18.3255 0.209473 17.9592 0.209473H16.1161C15.7498 0.209473 15.4517 0.50752 15.4517 0.873871V3.0442H12.5485V0.873871C12.5485 0.50752 12.2504 0.209473 11.8841 0.209473H10.041C9.67471 0.209473 9.37666 0.50752 9.37666 0.873871V3.0442H6.47341V0.873871C6.47341 0.50752 6.17537 0.209473 5.80902 0.209473H3.96577C3.59942 0.209473 3.30137 0.50752 3.30137 0.873871V3.0442H2.05078C0.919953 3.0442 0 3.96421 0 5.09498V20.4973C0 20.9919 0.820312 20.9919 0.820312 20.4973V9.66139H27.1797V25.7395C27.1797 26.418 26.6277 26.97 25.9492 26.97H2.05078C1.37233 26.97 0.820312 26.418 0.820312 25.7395V20.4973C0.820312 20.0028 0 20.0028 0 20.4973L0 25.7395C0 26.8703 0.919953 27.7903 2.05078 27.7903H25.9492C27.08 27.7903 28 26.8703 28 25.7395C28 25.0801 28 6.61097 28 6.01094C28 5.48196 27.1797 5.48196 27.1797 6.01094V8.84107H0.820312V5.09498C0.820312 4.41647 1.37233 3.86451 2.05078 3.86451H3.30132V5.18604C3.30132 6.06049 4.01275 6.77197 4.88726 6.77197C5.76177 6.77197 6.4732 6.06049 6.4732 5.18604V3.86451H9.37645V5.18604C9.37645 6.06054 10.0879 6.77197 10.9624 6.77197C11.8368 6.77197 12.5483 6.06054 12.5483 5.18604V3.86451H15.4516V5.18604C15.4516 6.06027 16.1634 6.77197 17.0375 6.77197C17.912 6.77197 18.6234 6.06054 18.6234 5.18604V3.86451H21.5267V5.18604C21.5267 6.06054 22.2382 6.77197 23.1127 6.77197C23.9871 6.77197 24.6986 6.06054 24.6986 5.18604V3.86451H25.9492C26.6277 3.86451 27.1797 4.41647 27.1797 5.09498V6.01094C27.1797 6.53993 28 6.53991 28 6.01094ZM4.12163 1.02984H5.65294V5.18609C5.65294 5.60828 5.30944 5.95171 4.88726 5.95171C4.46507 5.95171 4.12163 5.60828 4.12163 5.18609C4.12163 4.42309 4.12163 1.81039 4.12163 1.02984ZM11.7281 5.18609C11.7281 5.60828 11.3846 5.95171 10.9624 5.95171C10.5402 5.95171 10.1968 5.60828 10.1968 5.18609C10.1968 4.42309 10.1968 1.81045 10.1968 1.02984H11.7281V5.18609ZM17.8032 5.18609C17.8032 5.60828 17.4598 5.95171 17.0376 5.95171C16.6144 5.95171 16.2719 5.60702 16.2719 5.18609C16.2719 2.37389 16.2719 3.92385 16.2719 1.02984H17.8032V5.18609ZM23.8784 5.18609C23.8784 5.60828 23.5349 5.95171 23.1127 5.95171C22.6906 5.95171 22.3471 5.60828 22.3471 5.18609C22.3471 4.78698 22.3471 2.72953 22.3471 1.02984H23.8784V5.18609Z" fill="inherit"/>
</g>
<defs>
<clipPath id="clip0_96_134">
<rect width="28" height="28" fill="white"/>
</clipPath>
</defs>
</svg>
