<svg width="28" height="28" viewBox="0 0 28 28" fill="#333" xmlns="http://www.w3.org/2000/svg">
<g clip-path="url(#clip0_66_497)">
<path d="M27.682 22.9162L16.0317 2.73743C15.6076 2.00291 14.8481 1.56445 14 1.56445C13.1518 1.56445 12.3923 2.00297 11.9682 2.73743L0.318045 22.9162C-0.10603 23.6507 -0.10603 24.5277 0.318045 25.2622C0.742121 25.9967 1.50168 26.4352 2.34978 26.4352H25.6502C26.4984 26.4352 27.2579 25.9967 27.682 25.2622C28.106 24.5277 28.106 23.6507 27.682 22.9162ZM26.9716 24.8521C26.6958 25.3298 26.2018 25.615 25.6502 25.615H2.34978C1.79818 25.615 1.30422 25.3298 1.02839 24.8521C0.752621 24.3744 0.752621 23.804 1.02839 23.3264L12.6786 3.14756C12.9544 2.66989 13.4484 2.38472 14 2.38472C14.5516 2.38472 15.0456 2.66989 15.3214 3.14756L26.9716 23.3264C27.2474 23.804 27.2474 24.3744 26.9716 24.8521Z" fill="inherit"/>
<path d="M16.108 8.12994C15.9948 7.93373 15.744 7.86658 15.5478 7.97983C15.3517 8.09308 15.2844 8.34392 15.3977 8.54007L23.7374 22.9849H17.0687C16.8422 22.9849 16.6586 23.1685 16.6586 23.395C16.6586 23.6215 16.8422 23.8052 17.0687 23.8052H24.4478C24.5943 23.8052 24.7297 23.727 24.8029 23.6001C24.8762 23.4732 24.8762 23.3168 24.8029 23.19L16.108 8.12994Z" fill="inherit"/>
<path d="M10.9316 22.9848H4.26258L14 6.11907L14.4755 6.94277C14.5888 7.13893 14.8396 7.20613 15.0358 7.09288C15.2319 6.97963 15.2991 6.72879 15.1859 6.53264L14.3552 5.09374C14.2819 4.96687 14.1465 4.88867 14 4.88867C13.8534 4.88867 13.718 4.96687 13.6448 5.09374L3.19706 23.1899C3.12379 23.3168 3.12379 23.4731 3.19706 23.6C3.27034 23.7269 3.40568 23.8051 3.55224 23.8051H10.9316C11.1582 23.8051 11.3418 23.6215 11.3418 23.3949C11.3418 23.1684 11.1582 22.9848 10.9316 22.9848Z" fill="inherit"/>
<path d="M14 20.793C13.0487 20.793 12.2748 21.5669 12.2748 22.5181C12.2748 23.4694 13.0487 24.2434 14 24.2434C14.9513 24.2434 15.7252 23.4694 15.7252 22.5181C15.7252 21.5669 14.9513 20.793 14 20.793ZM14 23.4231C13.501 23.4231 13.0951 23.0171 13.0951 22.5181C13.0951 22.0191 13.501 21.6132 14 21.6132C14.499 21.6132 14.9049 22.0191 14.9049 22.5181C14.9049 23.0171 14.499 23.4231 14 23.4231Z" fill="inherit"/>
<path d="M13.147 10.7109C12.9153 10.7109 12.691 10.8073 12.5315 10.9754C12.372 11.1435 12.2875 11.3726 12.2997 11.604L12.6919 19.056C12.7156 19.5068 13.0878 19.8599 13.5392 19.8599H14.4609C14.9123 19.8599 15.2845 19.5068 15.3082 19.056L15.7004 11.604C15.7126 11.3726 15.6281 11.1435 15.4686 10.9754C15.3091 10.8073 15.0848 10.7109 14.8531 10.7109H13.147ZM14.8812 11.5609L14.489 19.0129C14.4883 19.0279 14.4759 19.0397 14.4608 19.0397H13.5392C13.5241 19.0397 13.5118 19.0279 13.5109 19.0129L13.1187 11.5609C13.1186 11.5579 13.1181 11.5488 13.1265 11.54C13.1348 11.5312 13.144 11.5312 13.147 11.5312H14.853C14.856 11.5312 14.8651 11.5312 14.8735 11.54C14.8819 11.5488 14.8814 11.5579 14.8812 11.5609Z" fill="inherit"/>
</g>
<defs>
<clipPath id="clip0_66_497">
<rect width="28" height="28" fill="white"/>
</clipPath>
</defs>
</svg>
