<svg width="24" height="24" viewBox="0 0 24 24" fill="none" xmlns="http://www.w3.org/2000/svg">
<path d="M11.9624 0.75C7.04985 0.75 2.88735 3.9 1.34985 8.25H22.5749C21.0374 3.9 16.8749 0.75 11.9624 0.75Z" fill="#3E4347"/>
<path d="M11.9624 23.25C16.8749 23.25 21.0374 20.1375 22.5749 15.75H1.34985C2.88735 20.1375 7.04985 23.25 11.9624 23.25Z" fill="#FFE62E"/>
<path d="M1.35015 8.25C0.937646 9.4125 0.712646 10.6875 0.712646 12C0.712646 13.3125 0.937646 14.5875 1.35015 15.75H22.5751C22.9876 14.5875 23.2126 13.3125 23.2126 12C23.2126 10.6875 22.9876 9.4125 22.5751 8.25H1.35015Z" fill="#ED4C5C"/>
</svg>
