<svg width="28" height="28" viewBox="0 0 28 28" fill="#333" xmlns="http://www.w3.org/2000/svg">
<path d="M21.5829 12.121V6.82205C21.5829 6.67038 21.5129 6.53024 21.4138 6.41937L15.4729 0.180939C15.362 0.0643005 15.2044 0 15.0469 0H5.62787C3.88898 0 2.5 1.41803 2.5 3.15714V20.968C2.5 22.7071 3.88898 24.1018 5.62787 24.1018H13.0628C14.4691 26.4361 17.0253 28 19.9372 28C24.3607 28 27.9731 24.4052 27.9731 19.9759C27.979 16.1068 25.2011 12.8738 21.5829 12.121ZM15.6306 2.04843L19.6163 6.2442H17.0311C16.2607 6.2442 15.6306 5.60825 15.6306 4.83792V2.04843ZM5.62787 22.9346C4.53668 22.9346 3.66724 22.0591 3.66724 20.968V3.15714C3.66724 2.05997 4.53668 1.16724 5.62787 1.16724H14.4633V4.83792C14.4633 6.25595 15.613 7.41144 17.0311 7.41144H20.4157V11.9691C20.2408 11.9633 20.1006 11.9458 19.9489 11.9458C17.9123 11.9458 16.039 12.7279 14.6267 13.9534H7.2153C6.89423 13.9534 6.63168 14.216 6.63168 14.5368C6.63168 14.8579 6.89423 15.1205 7.2153 15.1205H13.5413C13.1269 15.7041 12.7825 16.2877 12.5142 16.9296H7.2153C6.89423 16.9296 6.63168 17.1922 6.63168 17.5132C6.63168 17.8341 6.89423 18.0969 7.2153 18.0969H12.1348C11.9889 18.6805 11.9131 19.3282 11.9131 19.9759C11.9131 21.0263 12.1173 22.0651 12.485 22.9406H5.62787V22.9346ZM19.9432 26.8387C16.1616 26.8387 13.0861 23.7632 13.0861 19.9817C13.0861 16.2001 16.1556 13.1246 19.9432 13.1246C23.7305 13.1246 26.8 16.2001 26.8 19.9817C26.8 23.7632 23.7247 26.8387 19.9432 26.8387Z" fill="inherit"/>
<path d="M7.21533 12.1968H13.1269C13.448 12.1968 13.7105 11.934 13.7105 11.6132C13.7105 11.2921 13.448 11.0295 13.1269 11.0295H7.21533C6.89426 11.0295 6.63171 11.2921 6.63171 11.6132C6.63171 11.934 6.89426 12.1968 7.21533 12.1968Z" fill="inherit"/>
<path d="M22.9309 19.859L20.5325 22.4442V16.0717C20.5325 15.7506 20.2698 15.488 19.9489 15.488C19.6278 15.488 19.3653 15.7506 19.3653 16.0717V22.4442L16.9492 19.859C16.7275 19.6257 16.3541 19.6082 16.1206 19.8299C15.8871 20.0517 15.8696 20.4193 16.0915 20.6528L19.5054 24.3235C19.6163 24.4401 19.768 24.5102 19.9314 24.5102C20.0948 24.5102 20.2465 24.4401 20.3574 24.3235L23.7773 20.6528C23.999 20.4193 23.9873 20.0459 23.7538 19.8299C23.5145 19.6082 23.1528 19.6257 22.9309 19.859Z" fill="inherit"/>
</svg>
