<svg width="24" height="24" viewBox="0 0 24 24" fill="none" xmlns="http://www.w3.org/2000/svg">
<path d="M0.712646 12C0.712646 16.9124 3.86265 21.0749 8.21265 22.6124V1.38745C3.86265 2.92495 0.712646 7.08745 0.712646 12Z" fill="#428BC1"/>
<path d="M23.2126 12C23.2126 7.08745 20.1001 2.92495 15.7126 1.38745V22.6124C20.1001 21.0749 23.2126 16.9124 23.2126 12Z" fill="#ED4C5C"/>
<path d="M8.21265 22.6125C9.37515 23.025 10.6501 23.25 11.9626 23.25C13.2751 23.25 14.5501 23.025 15.7126 22.6125V1.3875C14.5501 0.975 13.3126 0.75 11.9626 0.75C10.6126 0.75 9.37515 0.975 8.21265 1.3875V22.6125Z" fill="white"/>
</svg>
