<svg width="28" height="28" viewBox="0 0 28 28" fill="#333333" xmlns="http://www.w3.org/2000/svg">
<path d="M15.6667 1.65283H14.8464V26.7396H15.6667V1.65283Z" fill="inherit"/>
<path d="M15.6406 27.1797H14.8203V28H15.6406V27.1797Z" fill="inherit"/>
<path d="M16.4609 2.87109V3.69141H18.8193V5.33203H16.4609V6.15234H19.6396V2.87109H16.4609Z" fill="inherit"/>
<path d="M14 3.69141V2.87109H0.0546875V6.15234H14V5.33203H0.875V3.69141H14Z" fill="inherit"/>
<path d="M4.97656 7.38281V10.6641H13.0771V7.38281H4.97656ZM12.2568 9.84375H5.79688V8.20312H12.2568V9.84375Z" fill="inherit"/>
<path d="M16.4609 11.8945V12.7148H27.125V14.3555H16.4609V15.1758H27.9453V11.8945H16.4609Z" fill="inherit"/>
<path d="M14 12.7148V11.8945H7.64258V15.1758H14V14.3555H8.46289V12.7148H14Z" fill="inherit"/>
<path d="M16.7686 16.4062V19.6875H24.1514V16.4062H16.7686ZM23.3311 18.8672H17.5889V17.2266H23.3311V18.8672Z" fill="inherit"/>
<path d="M16.4609 20.918V21.7383H20.1523V23.3789H16.4609V24.1992H20.9727V20.918H16.4609Z" fill="inherit"/>
<path d="M14 21.7383V20.918H11.8467V24.1992H14V23.3789H12.667V21.7383H14Z" fill="inherit"/>
<path d="M15.6302 0H14.8099V0.820312H15.6302V0Z" fill="inherit"/>
</svg>
