<svg width="18" height="18" viewBox="0 0 18 18" fill="none" xmlns="http://www.w3.org/2000/svg">
<path d="M8.99998 3.68449C10.6274 3.68449 11.7252 4.38745 12.3511 4.97486L14.797 2.58671C13.2948 1.19041 11.34 0.333374 8.99998 0.333374C5.61034 0.333374 2.68294 2.27856 1.25775 5.10967L4.05997 7.28597C4.76294 5.19634 6.70812 3.68449 8.99998 3.68449Z" fill="#EA4335"/>
<path d="M17.32 9.19263C17.32 8.48004 17.2622 7.96004 17.137 7.42078H9V10.6371H13.7763C13.68 11.4363 13.16 12.64 12.0044 13.4489L14.7393 15.5674C16.3763 14.0556 17.32 11.8311 17.32 9.19263Z" fill="#4285F4"/>
<path d="M4.06961 10.7141C3.88665 10.1748 3.78072 9.59703 3.78072 8.99999C3.78072 8.40295 3.88665 7.82518 4.05998 7.28592L1.25776 5.10962C0.67035 6.28443 0.333313 7.60369 0.333313 8.99999C0.333313 10.3963 0.67035 11.7155 1.25776 12.8904L4.06961 10.7141Z" fill="#FBBC05"/>
<path d="M8.99999 17.6667C11.34 17.6667 13.3044 16.8963 14.7392 15.5674L12.0044 13.4489C11.2726 13.9593 10.2904 14.3156 8.99999 14.3156C6.70814 14.3156 4.76295 12.8037 4.06962 10.7141L1.2674 12.8904C2.69258 15.7215 5.61036 17.6667 8.99999 17.6667Z" fill="#34A853"/>
</svg>
