<svg width="150" height="163" viewBox="0 0 150 163" fill="none" xmlns="http://www.w3.org/2000/svg">
<g clip-path="url(#clip0_54_377)">
<path d="M134.124 163H16.5708V63.8054L75.3378 26.5817L134.124 63.8054V163Z" fill="#147AA9"/>
<path opacity="0.2" d="M134.124 163H16.5708V63.8054L75.3378 26.5817L134.124 63.8054V163Z" fill="black"/>
<path d="M127.499 21.8644H23.2047V155.419H127.499V21.8644Z" fill="#EBEBEB"/>
<path d="M68.9948 101.769L45.1145 77.6485L53.1371 69.7489L67.09 83.8353L96.0747 38.5154L105.58 44.5618L68.9948 101.769Z" fill="#147AA9"/>
<path d="M134.124 88.6367V163H16.5708V88.6367C21.619 91.4914 26.5827 94.4866 31.5746 97.4068C36.557 100.383 41.5301 103.36 46.4751 106.392C51.983 109.734 57.491 113.141 62.9802 116.566C63.0365 116.529 63.1021 116.491 63.1584 116.463C63.1021 116.501 63.074 116.547 63.0177 116.585C67.1275 119.14 71.2468 121.714 75.3566 124.279C79.4477 121.705 83.5669 119.121 87.6768 116.585C87.6205 116.547 87.5923 116.501 87.536 116.463C87.5923 116.501 87.658 116.538 87.7143 116.547C93.2035 113.131 98.6927 109.734 104.219 106.373C109.164 103.36 114.119 100.364 119.101 97.4068C124.121 94.4772 129.075 91.4914 134.124 88.6367Z" fill="#147AA9"/>
<g opacity="0.2">
<path opacity="0.2" d="M134.124 88.6368C129.376 91.9689 124.534 95.1512 119.758 98.4271C114.935 101.628 110.103 104.839 105.242 108.002C100.175 111.315 95.0895 114.591 90.0038 117.849C89.8443 117.952 89.7035 118.064 89.544 118.167C85.0401 121.04 80.5267 123.904 76.004 126.778L75.3378 127.18L74.681 126.778C70.1583 123.904 65.6637 121.04 61.1598 118.148C61.0003 118.064 60.8408 117.952 60.6812 117.849C55.5768 114.591 50.4911 111.315 45.4242 107.983C40.5824 104.829 35.7501 101.628 30.9271 98.4177C26.1417 95.1418 21.3093 91.9595 16.5614 88.6274C21.6096 91.4822 26.5733 94.4773 31.5652 97.3975C36.5476 100.374 41.5207 103.35 46.4657 106.383C51.9736 109.724 57.4816 113.131 62.9708 116.557C62.9895 116.557 62.9895 116.557 63.0083 116.576C67.1181 119.131 71.2374 121.705 75.3472 124.269C79.4383 121.695 83.5575 119.112 87.6674 116.576C87.6861 116.538 87.6861 116.538 87.7049 116.538C93.1941 113.122 98.6832 109.724 104.21 106.364C109.155 103.35 114.109 100.355 119.092 97.3975C124.121 94.4773 129.075 91.4915 134.124 88.6368Z" fill="black"/>
<path opacity="0.2" d="M63.1584 116.463C63.1021 116.501 63.074 116.548 63.0177 116.585C62.3984 117.109 61.7791 117.643 61.1598 118.148C58.2135 120.628 55.1921 123.006 52.1238 125.318C48.3799 128.172 44.5515 130.896 40.7044 133.61C36.8385 136.269 32.9539 138.908 28.9848 141.445C25.0157 143.981 21.0091 146.461 16.8523 148.736C20.4179 145.619 24.1243 142.717 27.8682 139.881C31.6309 137.027 35.4592 134.303 39.2876 131.589C43.1722 128.912 47.0569 126.272 51.026 123.736C54.1881 121.714 57.3971 119.721 60.6813 117.858C61.4413 117.418 62.2014 116.997 62.9802 116.576C63.0365 116.529 63.1021 116.491 63.1584 116.463Z" fill="black"/>
<path opacity="0.2" d="M133.842 148.736C129.695 146.461 125.669 143.981 121.71 141.445C117.741 138.908 113.856 136.269 109.971 133.61C106.124 130.896 102.296 128.172 98.5519 125.318C95.5024 123.015 92.481 120.647 89.544 118.167C88.906 117.643 88.2867 117.109 87.6768 116.585C87.6205 116.548 87.5923 116.501 87.536 116.463C87.5923 116.501 87.658 116.538 87.7143 116.548C88.4931 116.988 89.2531 117.409 90.0132 117.849C93.2973 119.711 96.4876 121.705 99.6685 123.727C103.638 126.263 107.522 128.902 111.388 131.579C115.235 134.294 119.064 137.017 122.807 139.872C126.57 142.717 130.277 145.619 133.842 148.736Z" fill="black"/>
</g>
<path d="M25.0531 15.4903C24.6778 12.9071 24.5934 10.3238 24.5746 7.74047C24.584 5.15718 24.6684 2.57389 25.0344 -0.00939941C25.4097 2.57389 25.4941 5.15718 25.5129 7.74047C25.5035 10.3238 25.4191 12.9071 25.0531 15.4903Z" fill="#263238"/>
<path d="M18.4567 17.9519C16.3643 16.3888 14.4689 14.6199 12.6297 12.8134C10.8094 10.9789 9.03597 9.0976 7.45959 7.01038C9.55205 8.57345 11.4475 10.3331 13.2866 12.1489C15.1069 13.9834 16.8803 15.8647 18.4567 17.9519Z" fill="#263238"/>
<path d="M15.5292 24.3446C12.9394 24.719 10.3497 24.8032 7.7599 24.822C5.17013 24.8126 2.58037 24.7284 -0.00939941 24.3633C2.58037 23.9889 5.17013 23.9047 7.7599 23.886C10.3497 23.8953 12.9394 23.9796 15.5292 24.3446Z" fill="#263238"/>
<path d="M17.9969 30.9246C16.4299 33.0118 14.6565 34.9025 12.8455 36.737C11.0064 38.5528 9.12041 40.3217 7.02795 41.8942C8.59495 39.807 10.359 37.9163 12.1793 36.0818C14.0184 34.266 15.9045 32.497 17.9969 30.9246Z" fill="#263238"/>
<path d="M124.947 15.4903C124.581 12.9071 124.496 10.3238 124.487 7.74047C124.506 5.15718 124.59 2.57389 124.966 -0.00939941C125.332 2.57389 125.416 5.15718 125.425 7.74047C125.397 10.3331 125.313 12.9071 124.947 15.4903Z" fill="#263238"/>
<path d="M131.543 17.9519C133.11 15.8647 134.884 13.9834 136.713 12.1489C138.552 10.3331 140.448 8.57345 142.54 7.01038C140.973 9.0976 139.2 10.9789 137.37 12.8134C135.531 14.6199 133.636 16.3888 131.543 17.9519Z" fill="#263238"/>
<path d="M134.461 24.3446C137.051 23.9796 139.641 23.8953 142.231 23.886C144.82 23.9047 147.41 23.9889 150 24.3633C147.41 24.7284 144.82 24.8126 142.231 24.822C139.641 24.8032 137.051 24.719 134.461 24.3446Z" fill="#263238"/>
<path d="M132.003 30.9246C134.095 32.4876 135.981 34.2566 137.821 36.0724C139.641 37.9069 141.405 39.7976 142.972 41.8848C140.879 40.3217 138.993 38.5528 137.154 36.7276C135.334 34.9025 133.57 33.0118 132.003 30.9246Z" fill="#263238"/>
</g>
<defs>
<clipPath id="clip0_54_377">
<rect width="150" height="163" fill="white"/>
</clipPath>
</defs>
</svg>
