<svg width="36" height="36" viewBox="0 0 36 36" fill="#333" xmlns="http://www.w3.org/2000/svg">
<g filter="url(#filter0_d_65_460)">
<path d="M21.6451 23.2737L25.1219 21.9195L25.4196 22.684L21.9429 24.0382L21.6451 23.2737Z" fill="inherit"/>
<path d="M10.5678 22.6743L10.8656 21.9098L14.3313 23.2597L14.0336 24.0242L10.5678 22.6743Z" fill="inherit"/>
<path d="M10.5468 5.33398L14.0367 3.97469L14.3345 4.73917L10.8445 6.09847L10.5468 5.33398Z" fill="inherit"/>
<path d="M21.677 4.7395L21.9747 3.97502L25.4504 5.32875L25.1527 6.09323L21.677 4.7395Z" fill="inherit"/>
<path d="M20.0386 8.99097L19.7292 9.75063C20.9084 10.231 21.8425 11.1892 22.2921 12.3797L23.0595 12.0898C22.5295 10.6866 21.4284 9.55709 20.0386 8.99097Z" fill="inherit"/>
<path d="M29.1289 17.9238C28.3281 17.9238 27.6032 18.2538 27.0819 18.7844L24.2913 17.1732C24.7745 16.219 25.0473 15.1408 25.0473 14C25.0473 12.8682 24.7787 11.7981 24.3025 10.8494L27.0998 9.23442C27.6196 9.75423 28.3374 10.0762 29.1289 10.0762C30.7119 10.0762 31.9999 8.78817 31.9999 7.20508C31.9999 5.62198 30.7119 4.33398 29.1289 4.33398C27.5458 4.33398 26.2578 5.62198 26.2578 7.20508C26.2578 7.69995 26.3836 8.16599 26.605 8.57287L23.8924 10.139C22.7023 8.32869 20.7013 7.09707 18.4101 6.96495V5.71244C19.7995 5.51272 20.871 4.31495 20.871 2.87109C20.8711 1.288 19.5831 0 18 0C16.4169 0 15.1289 1.288 15.1289 2.87109C15.1289 4.31495 16.2004 5.51277 17.5898 5.71244V6.96484C16.6103 7.0222 15.6459 7.28405 14.778 7.73095L15.1535 8.46027C16.0392 8.00423 16.9969 7.77301 17.9999 7.77301C21.4335 7.77301 24.2269 10.5664 24.2269 14C24.2269 16.0529 23.2282 17.8766 21.6914 19.0116V17.7968L19.2776 15.9214L20.3169 14.7625L20.3169 13.1295C20.3169 12.5127 20.0753 11.9314 19.6367 11.4927C19.198 11.054 18.6168 10.8124 17.9999 10.8124C16.7224 10.8124 15.6829 11.8519 15.6829 13.1295V14.7625L16.7223 15.9214L14.3086 17.7968V19.0116C12.7718 17.8766 11.773 16.0529 11.773 14C11.773 11.9411 12.7897 10.0174 14.4927 8.85423L14.0301 8.17682C13.2547 8.70641 12.6053 9.37563 12.1057 10.1379L9.39498 8.57281C9.61635 8.16594 9.74219 7.69995 9.74219 7.20508C9.74219 5.62198 8.45424 4.33398 6.87109 4.33398C5.28795 4.33398 4 5.62198 4 7.20508C4 8.78817 5.28795 10.0762 6.87109 10.0762C7.66259 10.0762 8.38036 9.75423 8.90022 9.23437L11.697 10.8491C11.2147 11.8136 10.9528 12.8892 10.9528 14C10.9528 15.1408 11.2255 16.219 11.7088 17.1732L8.91821 18.7844C8.39687 18.2538 7.67194 17.9238 6.87109 17.9238C5.28795 17.9238 4 19.2118 4 20.7949C4 22.378 5.28795 23.666 6.87109 23.666C8.45424 23.666 9.74219 22.378 9.74219 20.7949C9.74219 20.3091 9.62045 19.8512 9.40652 19.4497L12.1215 17.8822C13.3133 19.6809 15.3076 20.9034 17.5898 21.0351V22.2876C16.2004 22.4872 15.1289 23.685 15.1289 25.1289C15.1289 26.712 16.4169 28 18 28C19.5831 28 20.8711 26.712 20.8711 25.1289C20.8711 23.6851 19.7996 22.4873 18.4102 22.2876V21.0351C20.6924 20.9034 22.6867 19.6809 23.8786 17.8822L26.5935 19.4496C26.3796 19.8512 26.2578 20.309 26.2578 20.7949C26.2578 22.378 27.5458 23.666 29.1289 23.666C30.712 23.666 32 22.378 32 20.7949C32 19.2118 30.7121 17.9238 29.1289 17.9238ZM29.1289 5.1543C30.2597 5.1543 31.1797 6.07425 31.1797 7.20508C31.1797 8.33591 30.2597 9.25586 29.1289 9.25586C27.9981 9.25586 27.0781 8.33591 27.0781 7.20508C27.0781 6.07425 27.9981 5.1543 29.1289 5.1543ZM15.9492 2.87109C15.9492 1.74027 16.8692 0.820312 18 0.820312C19.1308 0.820312 20.0508 1.74027 20.0508 2.87109C20.0508 4.00192 19.1308 4.92188 18 4.92188C16.8692 4.92188 15.9492 4.00192 15.9492 2.87109ZM6.87109 9.25586C5.74027 9.25586 4.82031 8.33591 4.82031 7.20508C4.82031 6.07425 5.74027 5.1543 6.87109 5.1543C8.00192 5.1543 8.92188 6.0743 8.92188 7.20508C8.92188 8.33585 8.00192 9.25586 6.87109 9.25586ZM6.87109 22.8457C5.74027 22.8457 4.82031 21.9258 4.82031 20.7949C4.82031 19.6641 5.74027 18.7441 6.87109 18.7441C8.00192 18.7441 8.92188 19.6641 8.92188 20.7949C8.92188 21.9257 8.00192 22.8457 6.87109 22.8457ZM16.5033 13.1294C16.5033 12.3041 17.1747 11.6327 18 11.6327C18.3977 11.6327 18.773 11.7889 19.0567 12.0727C19.3405 12.3565 19.4967 12.7317 19.4967 13.1294L19.4967 14.4485L18.4954 15.565H17.5046L16.5033 14.4485V13.1294ZM15.1289 18.1982L17.4621 16.3854H18.5379L20.871 18.1982V19.5244C20.0114 19.973 19.0349 20.227 17.9999 20.227C16.965 20.227 15.9885 19.973 15.1289 19.5244V18.1982H15.1289ZM20.0508 25.1289C20.0508 26.2597 19.1308 27.1797 18 27.1797C16.8692 27.1797 15.9492 26.2597 15.9492 25.1289C15.9492 23.9981 16.8692 23.0781 18 23.0781C19.1308 23.0781 20.0508 23.9981 20.0508 25.1289ZM29.1289 22.8457C27.9981 22.8457 27.0781 21.9258 27.0781 20.7949C27.0781 19.6641 27.9981 18.7441 29.1289 18.7441C30.2597 18.7441 31.1797 19.6641 31.1797 20.7949C31.1797 21.9258 30.2597 22.8457 29.1289 22.8457Z" fill="inherit"/>
<path d="M6.625 11.375H7.5V16.625H6.625V11.375Z" fill="inherit"/>
<path d="M28.5 11.375H29.375V16.625H28.5V11.375Z" fill="inherit"/>
</g>
<defs>
<filter id="filter0_d_65_460" x="0" y="0" width="36" height="36" filterUnits="userSpaceOnUse" color-interpolation-filters="sRGB">
<feFlood flood-opacity="0" result="BackgroundImageFix"/>
<feColorMatrix in="SourceAlpha" type="matrix" values="0 0 0 0 0 0 0 0 0 0 0 0 0 0 0 0 0 0 127 0" result="hardAlpha"/>
<feOffset dy="4"/>
<feGaussianBlur stdDeviation="2"/>
<feComposite in2="hardAlpha" operator="out"/>
<feColorMatrix type="matrix" values="0 0 0 0 0 0 0 0 0 0 0 0 0 0 0 0 0 0 0.25 0"/>
<feBlend mode="normal" in2="BackgroundImageFix" result="effect1_dropShadow_65_460"/>
<feBlend mode="normal" in="SourceGraphic" in2="effect1_dropShadow_65_460" result="shape"/>
</filter>
</defs>
</svg>
