<svg width="28" height="28" viewBox="0 0 28 28" fill="#333" xmlns="http://www.w3.org/2000/svg">
<path d="M23.9668 1.81202H23.4709V1.31616C23.4709 0.590406 22.8805 0 22.1548 0C21.429 0 20.8386 0.590406 20.8386 1.31616V1.81202H18.941V1.31616C18.941 0.590406 18.3506 0 17.6249 0C16.8991 0 16.3087 0.590406 16.3087 1.31616V1.81202H14.411V1.31616C14.411 0.590406 13.8206 0 13.0949 0C12.3691 0 11.7787 0.590406 11.7787 1.31616V1.81202H9.88105V1.31616C9.8811 0.590406 9.29064 0 8.56494 0C7.83918 0 7.24877 0.590406 7.24877 1.31616V1.81202H6.75287C5.52759 1.81202 4.5308 2.80886 4.5308 4.03408V14.0713L3.52751 13.068C3.01432 12.5548 2.17935 12.5548 1.66616 13.068L0.384891 14.3492C-0.128297 14.8624 -0.128297 15.6974 0.384891 16.2105L4.53075 20.3564V25.7779C4.53075 27.0032 5.52759 28 6.75281 28H20.7056C20.9321 28 21.1157 27.8164 21.1157 27.5898C21.1157 27.3633 20.9321 27.1797 20.7056 27.1797H6.75287C5.97991 27.1797 5.35112 26.5508 5.35112 25.7779V21.1767L8.69712 24.5227C8.70685 24.5324 8.71702 24.5416 8.72758 24.5502C8.73474 24.5561 8.74218 24.5613 8.74962 24.5666C8.75312 24.569 8.7564 24.5718 8.75995 24.5742C8.76936 24.5804 8.77904 24.586 8.78883 24.5914C8.79069 24.5925 8.79244 24.5937 8.7943 24.5947C8.80463 24.6002 8.81519 24.605 8.8258 24.6095C8.82738 24.6102 8.82886 24.6111 8.8305 24.6117C8.84084 24.616 8.85134 24.6196 8.86189 24.623C8.86408 24.6237 8.86616 24.6246 8.86834 24.6252C8.8783 24.6282 8.88836 24.6306 8.89842 24.6328C8.90143 24.6334 8.90433 24.6344 8.90734 24.635C8.91712 24.6369 8.92697 24.6381 8.93687 24.6393C8.94031 24.6398 8.94365 24.6405 8.94709 24.6408C8.96038 24.6421 8.97378 24.6428 8.98713 24.6428H11.3798L11.9003 25.1633C11.9803 25.2434 12.0853 25.2835 12.1903 25.2835C12.2952 25.2835 12.4002 25.2434 12.4803 25.1633C12.6405 25.0031 12.6405 24.7434 12.4803 24.5832L11.9598 24.0628V21.6702C11.9598 21.6568 11.9591 21.6434 11.9578 21.63C11.9575 21.627 11.9569 21.6242 11.9565 21.6213C11.9553 21.6109 11.9539 21.6005 11.9519 21.5902C11.9514 21.5876 11.9506 21.585 11.95 21.5824C11.9477 21.572 11.9452 21.5615 11.9422 21.5512C11.9416 21.5494 11.9409 21.5476 11.9403 21.5458C11.9368 21.5349 11.933 21.5241 11.9287 21.5134C11.9282 21.5123 11.9276 21.5112 11.9271 21.51C11.9224 21.4989 11.9173 21.4879 11.9116 21.4772C11.9108 21.4758 11.91 21.4745 11.9092 21.4731C11.9036 21.4628 11.8976 21.4527 11.8911 21.4429C11.8891 21.4398 11.8867 21.437 11.8845 21.4339C11.8789 21.426 11.8734 21.4181 11.8672 21.4105C11.8585 21.3999 11.8494 21.3898 11.8397 21.38L8.49362 18.034H22.6078C22.8343 18.034 23.0179 17.8503 23.0179 17.6238C23.0179 17.3973 22.8343 17.2137 22.6078 17.2137H8.11191C7.99143 17.2137 7.88337 17.2659 7.80834 17.3487L5.35106 14.8914V7.16226H25.3685V9.95958C25.3685 10.1861 25.5522 10.3697 25.7787 10.3697C26.0052 10.3697 26.1889 10.1861 26.1889 9.95958V4.03408C26.1889 2.8088 25.1921 1.81202 23.9668 1.81202ZM11.1395 23.8225H9.97735L11.1395 22.6604V23.8225ZM2.53624 17.2018L3.2375 16.5006L9.68838 22.9515L8.98718 23.6527L2.53624 17.2018ZM10.2684 22.3714L3.81752 15.9205L4.51877 15.2193L10.9697 21.6702L10.2684 22.3714ZM0.964961 14.9293L2.24623 13.648C2.43955 13.4547 2.75417 13.4547 2.94749 13.648L3.93876 14.6393L1.95623 16.6217L0.965016 15.6305C0.771641 15.4372 0.771641 15.1226 0.964961 14.9293ZM22.1548 0.820312C22.4282 0.820312 22.6506 1.04273 22.6506 1.31616V3.12812C22.6506 3.40156 22.4282 3.62398 22.1548 3.62398C21.8813 3.62398 21.6589 3.40156 21.6589 3.12812V2.22272C21.6589 2.22255 21.6589 2.22239 21.6589 2.22217C21.6589 2.22195 21.6589 2.22184 21.6589 2.22163V1.31616C21.659 1.04273 21.8814 0.820312 22.1548 0.820312ZM17.6249 0.820312C17.8983 0.820312 18.1207 1.04273 18.1207 1.31616V3.12812C18.1207 3.40156 17.8983 3.62398 17.6249 3.62398C17.3514 3.62398 17.129 3.40156 17.129 3.12812V2.22272C17.129 2.22255 17.129 2.22239 17.129 2.22217C17.129 2.22195 17.129 2.22184 17.129 2.22163V1.31616C17.129 1.04273 17.3514 0.820312 17.6249 0.820312ZM12.5991 1.31616C12.5991 1.04273 12.8215 0.820312 13.0949 0.820312C13.3684 0.820312 13.5908 1.04273 13.5908 1.31616V2.22163V2.22217C13.5908 2.22217 13.5908 2.2225 13.5908 2.22272V3.12812C13.5908 3.40156 13.3684 3.62398 13.0949 3.62398C12.8215 3.62398 12.5991 3.40156 12.5991 3.12812V1.31616ZM8.56494 0.820312C8.83832 0.820312 9.06079 1.04273 9.06079 1.31616V3.12812C9.06079 3.40156 8.83838 3.62398 8.56494 3.62398C8.2915 3.62398 8.06909 3.40156 8.06909 3.12812V1.31616C8.06909 1.04273 8.2915 0.820312 8.56494 0.820312ZM5.35112 6.34195V4.03408C5.35112 3.26112 5.97997 2.63233 6.75287 2.63233H7.24877V3.12812C7.24877 3.85388 7.83918 4.44429 8.56494 4.44429C9.29064 4.44429 9.8811 3.85388 9.8811 3.12812V2.63233H11.7788V3.12812C11.7788 3.85388 12.3692 4.44429 13.0949 4.44429C13.8207 4.44429 14.4111 3.85388 14.4111 3.12812V2.63233H16.3087V3.12812C16.3087 3.85388 16.8991 4.44429 17.6249 4.44429C18.3507 4.44429 18.9411 3.85388 18.9411 3.12812V2.63233H20.8387V3.12812C20.8387 3.85388 21.4291 4.44429 22.1549 4.44429C22.8806 4.44429 23.4711 3.85388 23.4711 3.12812V2.63233H23.9669C24.7399 2.63233 25.3687 3.26118 25.3687 4.03408V6.34195H5.35112Z" fill="inherit"/>
<path d="M25.7788 11.1902C25.5522 11.1902 25.3686 11.3738 25.3686 11.6003V25.778C25.3686 26.5509 24.7398 27.1798 23.9668 27.1798H22.3462C22.1197 27.1798 21.936 27.3634 21.936 27.5899C21.936 27.8164 22.1197 28.0001 22.3462 28.0001H23.9668C25.1921 28.0001 26.1889 27.0032 26.1889 25.778V11.6003C26.1889 11.3738 26.0053 11.1902 25.7788 11.1902Z" fill="inherit"/>
<path d="M8.11182 9.88013H22.6077C22.8342 9.88013 23.0178 9.69649 23.0178 9.46997C23.0178 9.24346 22.8342 9.05981 22.6077 9.05981H8.11182C7.8853 9.05981 7.70166 9.24346 7.70166 9.46997C7.70166 9.69649 7.8853 9.88013 8.11182 9.88013Z" fill="inherit"/>
<path d="M8.11182 12.5981H22.6077C22.8342 12.5981 23.0178 12.4145 23.0178 12.188C23.0178 11.9615 22.8342 11.7778 22.6077 11.7778H8.11182C7.8853 11.7778 7.70166 11.9615 7.70166 12.188C7.70166 12.4145 7.8853 12.5981 8.11182 12.5981Z" fill="inherit"/>
<path d="M8.11182 15.3162H22.6077C22.8342 15.3162 23.0178 15.1325 23.0178 14.906C23.0178 14.6795 22.8342 14.4958 22.6077 14.4958H8.11182C7.8853 14.4958 7.70166 14.6795 7.70166 14.906C7.70166 15.1325 7.8853 15.3162 8.11182 15.3162Z" fill="inherit"/>
<path d="M23.0179 20.3418C23.0179 20.1153 22.8343 19.9316 22.6077 19.9316H13.0948C12.8683 19.9316 12.6847 20.1153 12.6847 20.3418C12.6847 20.5683 12.8683 20.752 13.0948 20.752H22.6077C22.8343 20.752 23.0179 20.5683 23.0179 20.3418Z" fill="inherit"/>
</svg>
