<svg width="36" height="36" viewBox="0 0 36 36" fill="#333333" xmlns="http://www.w3.org/2000/svg">
<g clip-path="url(#clip0_65_409)" filter="url(#filter0_d_65_409)">
<path d="M31.6014 7.35273C31.6013 7.35273 31.6013 7.35273 31.6013 7.35273L31.6003 7.3518L29.793 7.09394C29.539 7.05776 29.3624 6.8225 29.3986 6.56848C29.4159 6.4464 29.4812 6.33629 29.5798 6.2623L31.0405 5.16676C31.2458 5.0128 31.2874 4.72161 31.1334 4.51632L29.4608 2.28621C29.3069 2.08092 29.0157 2.03933 28.8104 2.19329L27.3501 3.28883C27.1457 3.44395 26.8543 3.40399 26.6992 3.19957C26.6238 3.10032 26.5915 2.97493 26.6095 2.85164L26.8679 1.04432C26.9043 0.790301 26.7279 0.55492 26.4739 0.518449C26.4738 0.518449 26.4736 0.518391 26.4734 0.518391L23.7155 0.124406C23.4616 0.0879344 23.2261 0.264252 23.1896 0.518275C23.1896 0.518333 23.1896 0.518333 23.1896 0.518391L22.9313 2.3257C22.8951 2.57973 22.6598 2.75633 22.4058 2.72015C22.2837 2.70279 22.1736 2.63757 22.0996 2.53896L21.0045 1.07824C20.8506 0.872943 20.5594 0.83136 20.3541 0.985319L18.958 2.033C18.3263 1.96587 17.6894 1.96587 17.0577 2.033C12.9212 2.5058 9.67742 5.80461 9.2742 9.94848C9.26165 10.08 9.25701 10.2105 9.2505 10.3411H9.11112C8.89067 10.3415 8.70082 10.4968 8.65674 10.7128L8.3357 12.2394L7.04967 11.3525C6.8651 11.2252 6.61584 11.2479 6.4573 11.4064L5.06348 12.8002C4.90517 12.9587 4.88252 13.2076 5.00959 13.3921L5.89234 14.6758L4.36518 14.9969C4.15158 15.0437 3.99954 15.2331 4 15.4517V17.3101C3.99988 17.5299 4.15384 17.7197 4.3689 17.765L5.89605 18.086L5.0133 19.3697C4.88624 19.5542 4.90888 19.8032 5.0672 19.9616L6.46101 21.3555C6.61956 21.514 6.86882 21.5367 7.05339 21.4094L8.33709 20.5243L8.65813 22.0514C8.70221 22.2674 8.89206 22.4227 9.11251 22.4231H10.9709C11.1907 22.4232 11.3805 22.2693 11.4258 22.0542L11.7468 20.5271L13.0305 21.4098C13.215 21.5369 13.4639 21.5142 13.6224 21.3559L14.344 20.6321V21.9562C14.3461 22.6172 14.7001 23.2269 15.2732 23.5563V26.1376C15.2732 27.164 16.1052 27.9961 17.1316 27.9961H18.99C20.0164 27.9961 20.8484 27.164 20.8484 26.1376V23.5563C21.4215 23.2269 21.7756 22.6172 21.7777 21.9562V20.1173C21.7903 19.3435 22.195 18.6292 22.8523 18.2208C23.2378 17.9706 23.6035 17.691 23.946 17.3845L23.3262 16.6922C23.0198 16.9668 22.6925 17.217 22.3473 17.4407C21.4247 18.0197 20.86 19.0281 20.8484 20.1173V21.9562C20.8484 22.4694 20.4324 22.8854 19.9192 22.8854H16.2024C15.6892 22.8854 15.2732 22.4694 15.2732 21.9562V20.0787C15.2624 19.0102 14.7066 18.0212 13.7995 17.4565C10.117 15.1426 9.00757 10.2818 11.3214 6.59937C12.7571 4.31462 15.2626 2.924 17.9609 2.91436C17.954 2.93091 17.9479 2.94781 17.9428 2.965C17.9256 3.08696 17.9575 3.21083 18.0315 3.30927L19.1266 4.76953C19.2421 4.91895 19.2532 5.12419 19.1545 5.28524C19.0595 5.44727 18.8758 5.53566 18.6899 5.50871L16.8826 5.25039C16.6285 5.21398 16.3932 5.39035 16.3567 5.64432C16.3567 5.64449 16.3566 5.64467 16.3566 5.64484L15.9622 8.40413C15.9258 8.6581 16.1022 8.89353 16.3561 8.93001C16.3563 8.93001 16.3565 8.93006 16.3566 8.93006L18.164 9.18838C18.418 9.22456 18.5946 9.45983 18.5584 9.71385C18.541 9.83593 18.4758 9.94604 18.3772 10.02L16.917 11.1151C16.7117 11.2691 16.6701 11.5603 16.824 11.7655L18.4966 13.9957C18.6506 14.2009 18.9418 14.2425 19.1471 14.0886L20.6078 12.9935C20.8132 12.8398 21.1044 12.8818 21.2581 13.0873C21.3316 13.1857 21.3633 13.3091 21.346 13.4307L21.0882 15.238C21.0517 15.492 21.228 15.7275 21.482 15.7639C21.4821 15.7639 21.4821 15.7639 21.4822 15.7639L24.2419 16.1584C24.2636 16.1612 24.2855 16.1626 24.3074 16.1626C24.5387 16.1629 24.735 15.9929 24.7678 15.7639L25.0257 13.9566C25.0619 13.7026 25.2972 13.526 25.5512 13.5622C25.6733 13.5795 25.7834 13.6448 25.8573 13.7434L26.9529 15.2036C27.1068 15.4089 27.398 15.4505 27.6033 15.2965L29.8334 13.624C30.0387 13.47 30.0803 13.1788 29.9264 12.9735L28.8313 11.5133C28.7164 11.3636 28.7053 11.1587 28.8034 10.9976C28.8964 10.8334 29.0818 10.7444 29.268 10.7745L31.0753 11.0324C31.3293 11.0689 31.5648 10.8925 31.6013 10.6385C31.6013 10.6385 31.6013 10.6385 31.6013 10.6384L31.9952 7.87866C32.0317 7.62464 31.8554 7.3892 31.6014 7.35273ZM16.2024 23.8146H19.9192V24.7438H16.2024V23.8146ZM16.2024 25.673H19.9192V26.1376C19.9192 26.6509 19.5032 27.0668 18.99 27.0668H17.1316C16.6184 27.0668 16.2024 26.6509 16.2024 26.1376V25.673ZM12.5037 17.6609C12.7573 17.8684 13.0224 18.0615 13.2977 18.2394C13.7367 18.5168 14.0671 18.9365 14.2339 19.4283L13.2373 20.423L12.2723 19.7577C11.8497 19.4665 11.2711 19.573 10.9799 19.9956C10.9101 20.0969 10.8611 20.2111 10.8357 20.3315L10.5923 21.4916H9.48792L9.24446 20.3333C9.13877 19.8311 8.64599 19.5097 8.14381 19.6154C8.02342 19.6407 7.90925 19.6897 7.8079 19.7595L6.84246 20.423L5.99594 19.5783L6.66079 18.6138C6.95228 18.1914 6.84611 17.6128 6.42373 17.3213C6.32233 17.2513 6.20804 17.2022 6.08747 17.1768L4.92921 16.9329V15.829L6.08747 15.5851C6.58948 15.4786 6.91017 14.9854 6.80372 14.4833C6.77846 14.3642 6.73008 14.2512 6.66126 14.1508L5.99594 13.1835L6.84246 12.3389L7.80837 13.0042C8.2311 13.2951 8.80971 13.1882 9.10061 12.7655C9.1703 12.6643 9.2192 12.5502 9.24446 12.4299L9.32577 12.0434C9.40022 12.5787 9.52352 13.106 9.6942 13.6189C8.16548 13.8011 7.07394 15.1882 7.25619 16.7169C7.43843 18.2456 8.82551 19.3372 10.3542 19.1549C11.2745 19.0452 12.0801 18.4852 12.5037 17.6609ZM11.7821 17.0063C11.4352 17.9706 10.3722 18.4711 9.40789 18.1242C8.44354 17.7773 7.94305 16.7143 8.28993 15.75C8.55534 15.0123 9.25579 14.5209 10.0398 14.5225C10.0458 14.5225 10.0514 14.5225 10.0575 14.5225C10.4847 15.4438 11.0682 16.2841 11.7821 17.0063ZM30.7445 10.0456L29.3972 9.85323C28.6351 9.7444 27.9291 10.274 27.8203 11.036C27.768 11.4019 27.8633 11.7737 28.0851 12.0694L28.9014 13.158L27.4147 14.273L26.5979 13.1849C26.1361 12.569 25.2625 12.4441 24.6466 12.9059C24.3509 13.1277 24.1554 13.4578 24.103 13.8237L23.9148 15.173L22.0755 14.91L22.2678 13.5626C22.3769 12.8006 21.8476 12.0944 21.0856 11.9854C20.7195 11.9329 20.3475 12.0282 20.0516 12.2501L18.9631 13.0664L17.848 11.5797L18.9361 10.7629C19.552 10.3011 19.6769 9.42748 19.2151 8.81165C18.9934 8.51593 18.6632 8.32039 18.2973 8.268L16.9499 8.07565L17.2129 6.23628L18.5603 6.42863C19.3223 6.53775 20.0285 6.00845 20.1375 5.24644C20.19 4.88028 20.0947 4.50836 19.8728 4.21246L19.0537 3.12297L20.5404 2.00791L21.3572 3.09648C21.819 3.71238 22.6926 3.8373 23.3085 3.37548C23.6042 3.15375 23.7997 2.82359 23.8521 2.45765L24.0445 1.1103L25.8838 1.3728L25.6915 2.72015C25.5827 3.48222 26.1122 4.18819 26.8743 4.29702C27.2402 4.34929 27.6119 4.25405 27.9076 4.0322L28.9962 3.21589L30.1113 4.70262L29.0227 5.5194C28.4068 5.98122 28.2819 6.85485 28.7437 7.47068C28.9654 7.7664 29.2956 7.96194 29.6615 8.01433L31.0089 8.20667L30.7445 10.0456Z" />
<path d="M23.978 4.42383C21.9253 4.42383 20.2612 6.08793 20.2612 8.14067C20.2612 10.1934 21.9253 11.8575 23.978 11.8575C26.0308 11.8575 27.6949 10.1934 27.6949 8.14067C27.6925 6.08886 26.0298 4.42609 23.978 4.42383ZM23.978 10.9283C22.4384 10.9283 21.1904 9.68025 21.1904 8.14067C21.1904 6.60108 22.4384 5.35304 23.978 5.35304C25.5176 5.35304 26.7656 6.60108 26.7656 8.14067C26.7638 9.6795 25.5168 10.9265 23.978 10.9283Z" />
<path d="M18.5254 20.562H17.5962V21.9558H18.5254V20.562Z" />
<path d="M16.0286 15.9993C13.1606 14.8789 11.7438 11.6456 12.8643 8.77752C13.2984 7.66619 14.0776 6.72345 15.0873 6.08787L14.5907 5.30176C11.5512 7.21657 10.6395 11.2328 12.5543 14.2722C13.2959 15.4494 14.3954 16.3577 15.6913 16.8639C16.8384 17.3034 17.5959 18.4045 17.5962 19.633H18.5254C18.5269 18.0212 17.5337 16.5758 16.0286 15.9993Z" />
</g>
<defs>
<filter id="filter0_d_65_409" x="0" y="0" width="36" height="36" filterUnits="userSpaceOnUse" color-interpolation-filters="sRGB">
<feFlood flood-opacity="0" result="BackgroundImageFix"/>
<feColorMatrix in="SourceAlpha" type="matrix" values="0 0 0 0 0 0 0 0 0 0 0 0 0 0 0 0 0 0 127 0" result="hardAlpha"/>
<feOffset dy="4"/>
<feGaussianBlur stdDeviation="2"/>
<feComposite in2="hardAlpha" operator="out"/>
<feColorMatrix type="matrix" values="0 0 0 0 0 0 0 0 0 0 0 0 0 0 0 0 0 0 0.25 0"/>
<feBlend mode="normal" in2="BackgroundImageFix" result="effect1_dropShadow_65_409"/>
<feBlend mode="normal" in="SourceGraphic" in2="effect1_dropShadow_65_409" result="shape"/>
</filter>
<clipPath id="clip0_65_409">
<rect width="28" height="28"  transform="translate(4)"/>
</clipPath>
</defs>
</svg>
