<svg width="28" height="28" viewBox="0 0 28 28" fill="#333" xmlns="http://www.w3.org/2000/svg">
<g clip-path="url(#clip0_65_482)">
<path d="M25.0377 23.0435C25.2643 23.0435 25.4478 22.8598 25.4478 22.6333V3.6861C25.4478 2.97746 24.8713 2.40095 24.1627 2.40095H23.127V1.28516C23.127 0.576516 22.5504 0 21.8418 0H10.4105C10.184 0 10.0004 0.183641 10.0004 0.410156C10.0004 0.636672 10.184 0.820312 10.4105 0.820312H21.8417C22.0981 0.820312 22.3066 1.02884 22.3066 1.28516V2.40095H6.15825C5.44961 2.40095 4.87309 2.97746 4.87309 3.6861V24.7787H3.83731C3.58099 24.7787 3.37247 24.5702 3.37247 24.3138V1.28516C3.37247 1.02884 3.58099 0.820312 3.83731 0.820312H8.49647C8.72298 0.820312 8.90663 0.636672 8.90663 0.410156C8.90663 0.183641 8.72298 0 8.49647 0H3.83731C3.12867 0 2.55216 0.576516 2.55216 1.28516V24.3139C2.55216 25.0225 3.12867 25.5991 3.83731 25.5991H4.87309V26.7148C4.87309 27.4235 5.44961 28 6.15825 28H24.1626C24.8713 28 25.4478 27.4235 25.4478 26.7148V24.8208C25.4478 24.5943 25.2642 24.4106 25.0376 24.4106C24.8111 24.4106 24.6275 24.5943 24.6275 24.8208V26.7148C24.6275 26.9712 24.419 27.1797 24.1626 27.1797H6.15825C5.90193 27.1797 5.69341 26.9712 5.69341 26.7148V25.1889V3.6861C5.69341 3.42978 5.90193 3.22126 6.15825 3.22126H24.1626C24.419 3.22126 24.6275 3.42978 24.6275 3.6861V22.6333C24.6275 22.8598 24.8111 23.0435 25.0377 23.0435Z" fill="inherit"/>
<path d="M17.2396 9.46568C17.2396 7.08164 15.3001 5.14209 12.916 5.14209C10.532 5.14209 8.59245 7.08164 8.59245 9.46568C8.59245 11.8497 10.532 13.7893 12.916 13.7893C15.3001 13.7893 17.2396 11.8497 17.2396 9.46568ZM12.5059 9.46568V12.9451C10.7668 12.7413 9.41276 11.2586 9.41276 9.46568C9.41276 7.53396 10.9843 5.9624 12.916 5.9624C14.709 5.9624 16.1917 7.31641 16.3955 9.05553H12.916C12.6895 9.05553 12.5059 9.23917 12.5059 9.46568ZM13.3262 12.9451V9.87584H16.3955C16.2075 11.4803 14.9307 12.7571 13.3262 12.9451Z" fill="inherit"/>
<path d="M22.9873 6.65039H19.3041C19.0776 6.65039 18.894 6.83403 18.894 7.06054C18.894 7.28706 19.0776 7.4707 19.3041 7.4707H22.9874C23.214 7.4707 23.3976 7.28706 23.3976 7.06054C23.3976 6.83403 23.2139 6.65039 22.9873 6.65039Z" fill="inherit"/>
<path d="M22.9873 8.771H19.3041C19.0776 8.771 18.894 8.95464 18.894 9.18115C18.894 9.40767 19.0776 9.59131 19.3041 9.59131H22.9874C23.214 9.59131 23.3976 9.40767 23.3976 9.18115C23.3976 8.95464 23.2139 8.771 22.9873 8.771Z" fill="inherit"/>
<path d="M22.9873 10.8918H19.3041C19.0776 10.8918 18.894 11.0755 18.894 11.302C18.894 11.5285 19.0776 11.7122 19.3041 11.7122H22.9874C23.214 11.7122 23.3976 11.5285 23.3976 11.302C23.3976 11.0755 23.2139 10.8918 22.9873 10.8918Z" fill="inherit"/>
<path d="M9.0026 16.6221C8.77609 16.6221 8.59245 16.8057 8.59245 17.0322V25.1891C8.59245 25.4156 8.77609 25.5992 9.0026 25.5992H11.0939C11.3204 25.5992 11.504 25.4156 11.504 25.1891V17.0322C11.504 16.8057 11.3204 16.6221 11.0939 16.6221H9.0026ZM10.6836 24.7789H9.4127V17.4424H10.6836V24.7789Z" fill="inherit"/>
<path d="M12.7958 18.1567C12.5693 18.1567 12.3857 18.3404 12.3857 18.5669V25.1891C12.3857 25.4156 12.5693 25.5992 12.7958 25.5992H14.887C15.1136 25.5992 15.2972 25.4156 15.2972 25.1891V18.5669C15.2972 18.3404 15.1136 18.1567 14.887 18.1567H12.7958ZM14.4769 24.779H13.206V18.9771H14.4769V24.779Z" fill="inherit"/>
<path d="M16.5891 25.599H18.6803C18.9068 25.599 19.0904 25.4154 19.0904 25.1889V20.5234C19.0904 20.2969 18.9068 20.1133 18.6803 20.1133H16.5891C16.3625 20.1133 16.1789 20.2969 16.1789 20.5234V25.1889C16.1789 25.4154 16.3626 25.599 16.5891 25.599ZM16.9992 20.9336H18.2701V24.7787H16.9992V20.9336Z" fill="inherit"/>
<path d="M22.9873 16.6221H17.6347C17.4081 16.6221 17.2245 16.8057 17.2245 17.0322C17.2245 17.2587 17.4081 17.4424 17.6347 17.4424H22.9873C23.2139 17.4424 23.3975 17.2587 23.3975 17.0322C23.3975 16.8057 23.2139 16.6221 22.9873 16.6221Z" fill="inherit"/>
<path d="M22.9873 18.7427H21.3081C21.0815 18.7427 20.898 18.9263 20.898 19.1528C20.898 19.3793 21.0815 19.563 21.3081 19.563H22.9873C23.2139 19.563 23.3975 19.3793 23.3975 19.1528C23.3975 18.9263 23.2139 18.7427 22.9873 18.7427Z" fill="inherit"/>
<path d="M22.9873 20.8635H21.3081C21.0815 20.8635 20.898 21.0472 20.898 21.2737C20.898 21.5002 21.0815 21.6838 21.3081 21.6838H22.9873C23.2139 21.6838 23.3975 21.5002 23.3975 21.2737C23.3975 21.0472 23.2139 20.8635 22.9873 20.8635Z" fill="inherit"/>
<path d="M22.9873 22.9841H21.3081C21.0815 22.9841 20.898 23.1678 20.898 23.3943C20.898 23.6208 21.0815 23.8044 21.3081 23.8044H22.9873C23.2139 23.8044 23.3975 23.6208 23.3975 23.3943C23.3975 23.1678 23.2139 22.9841 22.9873 22.9841Z" fill="inherit"/>
</g>
<defs>
<clipPath id="clip0_65_482">
<rect width="28" height="28" fill="white"/>
</clipPath>
</defs>
</svg>
