<svg width="34" height="33" viewBox="0 0 34 33" fill="#333" xmlns="http://www.w3.org/2000/svg">
<g filter="url(#filter0_d_65_479)">
<path d="M28.025 6.3H22.7167V4.66667C22.7153 3.53956 21.8021 2.6264 20.675 2.625H13.325C12.1979 2.6264 11.2847 3.53956 11.2833 4.66667V6.3H5.975C5.2985 6.3 4.75 6.8485 4.75 7.525V16.6144C4.75259 17.1324 5.07898 17.5932 5.56667 17.7672V23.45C5.56667 24.1265 6.11517 24.675 6.79167 24.675H27.2083C27.8848 24.675 28.4333 24.1265 28.4333 23.45V17.7676C28.921 17.5934 29.2476 17.1324 29.25 16.6144V7.525C29.25 6.8485 28.7015 6.3 28.025 6.3ZM12.1 4.66667C12.1 3.99017 12.6485 3.44167 13.325 3.44167H20.675C21.3515 3.44167 21.9 3.99017 21.9 4.66667V6.3H21.0833V4.66667C21.0833 4.44117 20.9005 4.25833 20.675 4.25833H13.325C13.0995 4.25833 12.9167 4.44117 12.9167 4.66667V6.3H12.1V4.66667ZM20.2667 6.3H13.7333V5.075H20.2667V6.3ZM27.6167 23.45C27.6167 23.6755 27.4338 23.8583 27.2083 23.8583H6.79167C6.56617 23.8583 6.38333 23.6755 6.38333 23.45V17.9076L15.3667 19.1465V20.1833C15.3667 20.8598 15.9152 21.4083 16.5917 21.4083H17.4083C18.0848 21.4083 18.6333 20.8598 18.6333 20.1833V19.1465L27.6167 17.9076V23.45ZM17.8167 20.1833C17.8167 20.4088 17.6338 20.5917 17.4083 20.5917H16.5917C16.3662 20.5917 16.1833 20.4088 16.1833 20.1833V17.7333C16.1833 17.5078 16.3662 17.325 16.5917 17.325H17.4083C17.6338 17.325 17.8167 17.5078 17.8167 17.7333V20.1833ZM28.4333 16.6144C28.4335 16.818 28.2838 16.9906 28.0822 17.0191L27.969 17.0347L18.6333 18.3221V17.7333C18.6333 17.0568 18.0848 16.5083 17.4083 16.5083H16.5917C15.9152 16.5083 15.3667 17.0568 15.3667 17.7333V18.3221L5.91818 17.0191C5.7166 16.9908 5.56647 16.8182 5.56667 16.6144V7.525C5.56667 7.2995 5.7495 7.11667 5.975 7.11667H28.025C28.2505 7.11667 28.4333 7.2995 28.4333 7.525V16.6144Z" fill="inherit"/>
</g>
<defs>
<filter id="filter0_d_65_479" x="-1" y="0" width="36" height="36" filterUnits="userSpaceOnUse" color-interpolation-filters="sRGB">
<feFlood flood-opacity="0" result="BackgroundImageFix"/>
<feColorMatrix in="SourceAlpha" type="matrix" values="0 0 0 0 0 0 0 0 0 0 0 0 0 0 0 0 0 0 127 0" result="hardAlpha"/>
<feOffset dy="4"/>
<feGaussianBlur stdDeviation="2"/>
<feComposite in2="hardAlpha" operator="out"/>
<feColorMatrix type="matrix" values="0 0 0 0 0 0 0 0 0 0 0 0 0 0 0 0 0 0 0.25 0"/>
<feBlend mode="normal" in2="BackgroundImageFix" result="effect1_dropShadow_65_479"/>
<feBlend mode="normal" in="SourceGraphic" in2="effect1_dropShadow_65_479" result="shape"/>
</filter>
</defs>
</svg>
