<svg width="24" height="24" viewBox="0 0 24 24" fill="none" xmlns="http://www.w3.org/2000/svg">
<path d="M23.5 12C23.5 18.3513 18.3513 23.5 12 23.5C5.64873 23.5 0.5 18.3513 0.5 12C0.5 5.64873 5.64873 0.5 12 0.5C18.3513 0.5 23.5 5.64873 23.5 12Z" fill="#FFDA44" stroke="white"/>
<mask id="path-2-inside-1_601_1438" fill="white">
<path d="M0 12C0 5.37262 5.37262 0 12 0C18.6274 0 24 5.37262 24 12"/>
</mask>
<path d="M0 12C0 5.37262 5.37262 0 12 0C18.6274 0 24 5.37262 24 12" fill="#338AF3"/>
<path d="M1 12C1 5.92491 5.92491 1 12 1V-1C4.82034 -1 -1 4.82034 -1 12H1ZM12 1C18.0751 1 23 5.92491 23 12H25C25 4.82034 19.1797 -1 12 -1V1Z" fill="white" mask="url(#path-2-inside-1_601_1438)"/>
</svg>
