<svg width="20" height="20" viewBox="0 0 20 20" fill="#147AA9" xmlns="http://www.w3.org/2000/svg">
<g clip-path="url(#clip0_99_479)">
<path d="M7.15144 3.83058L9.66151 1.51025V12.2849C9.66151 12.5387 9.86723 12.7444 10.1211 12.7444C10.3747 12.7444 10.5806 12.5387 10.5806 12.2849V1.51025L13.0905 3.83058C13.2109 3.94313 13.3824 3.98262 13.5398 3.93416C13.6974 3.88551 13.8168 3.75626 13.8529 3.5956C13.8889 3.43476 13.8362 3.26692 13.7145 3.15563L10.4329 0.122111C10.2568 -0.0407036 9.98516 -0.0407036 9.80906 0.122111L6.52747 3.15581C6.40504 3.26674 6.35155 3.43494 6.38745 3.59632C6.42335 3.7577 6.54326 3.8873 6.70123 3.93577C6.8592 3.98424 7.03117 3.94403 7.15144 3.83058Z" fill="inherit"/>
<path d="M15.963 6.65063H13.7359C13.482 6.65063 13.2763 6.85635 13.2763 7.11018C13.2763 7.364 13.482 7.56972 13.7359 7.56972H15.963C16.7241 7.57062 17.3408 8.18723 17.3416 8.94835V17.7023C17.3408 18.4634 16.7241 19.08 15.963 19.0809H4.05406C3.29294 19.08 2.67615 18.4634 2.67543 17.7023V8.94835C2.67615 8.18723 3.29294 7.57062 4.05406 7.56972H6.28122C6.53505 7.56972 6.74076 7.364 6.74076 7.11018C6.74076 6.85635 6.53505 6.65063 6.28122 6.65063H4.05406C2.78565 6.65207 1.75778 7.67994 1.75635 8.94835V17.7023C1.75778 18.9707 2.78565 19.9985 4.05406 20H15.963C17.2314 19.9985 18.2593 18.9707 18.2607 17.7023V8.94835C18.2593 7.67994 17.2314 6.65207 15.963 6.65063Z" fill="inherit"/>
</g>
<defs>
<clipPath id="clip0_99_479">
<rect width="20" height="20" fill="white"/>
</clipPath>
</defs>
</svg>
