<svg width="24" height="24" viewBox="0 0 24 24" fill="none" xmlns="http://www.w3.org/2000/svg">
<g clip-path="url(#clip0_97_189)">
<path d="M11.847 10.116C14.6404 10.116 16.9051 7.85135 16.9051 5.0579C16.9051 2.26444 14.6404 0 11.847 0C9.0535 0 6.78906 2.26465 6.78906 5.0581C6.7922 7.8501 9.05497 10.1129 11.847 10.116ZM11.847 1.07143C14.0488 1.07143 15.8336 2.85624 15.8336 5.0581C15.8336 7.25977 14.0488 9.04457 11.847 9.04457C9.6453 9.04457 7.86049 7.25977 7.86049 5.0581C7.863 2.85728 9.64634 1.07394 11.847 1.07143Z" fill="#333333"/>
<path d="M11.9789 11.8977C6.7823 11.8956 2.5692 16.1089 2.57129 21.3054V23.4643C2.57129 23.7602 2.81111 24 3.107 24H20.8509C21.1468 24 21.3866 23.7602 21.3866 23.4643V21.3054C21.3889 16.1089 17.1756 11.8956 11.9789 11.8977ZM20.3152 22.9286H3.64272V21.3054C3.63519 18.3221 5.22245 15.5623 7.80476 14.0684C10.3871 12.5747 13.5708 12.5747 16.1533 14.0684C18.7356 15.5623 20.3229 18.3221 20.3152 21.3054V22.9286Z" fill="#333333"/>
</g>
<defs>
<clipPath id="clip0_97_189">
<rect width="24" height="24" fill="white"/>
</clipPath>
</defs>
</svg>
